<svg width="20" height="20" viewBox="0 0 20 20" fill="none" xmlns="http://www.w3.org/2000/svg">
<path d="M8.50003 15H3.97836C3.73175 14.9915 3.49316 14.9102 3.29267 14.7663C3.09217 14.6225 2.93874 14.4225 2.8517 14.1916C2.344 12.4196 2.38234 10.5357 2.9617 8.7858" stroke="black" stroke-width="1.66667" stroke-linecap="round" stroke-linejoin="round"/>
<path d="M15 8.49991V3.97824C14.9915 3.73163 14.9102 3.49304 14.7663 3.29255C14.6225 3.09205 14.4225 2.93862 14.1916 2.85158C12.4199 2.34405 10.5363 2.38239 8.78662 2.96158" stroke="black" stroke-width="1.66667" stroke-linecap="round" stroke-linejoin="round"/>
<path d="M15.0001 4.16666C15.8841 4.16666 16.732 4.43005 17.3571 4.89889C17.9822 5.36773 18.3334 6.00362 18.3334 6.66666C18.3334 7.10868 18.1578 7.53261 17.8453 7.84517C17.5327 8.15773 17.1088 8.33332 16.6667 8.33332C15.1585 8.33295 13.6783 8.74193 12.3842 9.51666" stroke="black" stroke-width="1.66667" stroke-linecap="round" stroke-linejoin="round"/>
<path d="M4.16666 14.9999C4.16666 15.8839 4.43006 16.7318 4.8989 17.3569C5.36774 17.982 6.00362 18.3332 6.66666 18.3332C7.10869 18.3332 7.53261 18.1576 7.84518 17.8451C8.15774 17.5325 8.33333 17.1086 8.33333 16.6665C8.3328 15.158 8.74179 13.6776 9.51666 12.3832" stroke="black" stroke-width="1.66667" stroke-linecap="round" stroke-linejoin="round"/>
<path d="M7.25756 2.1282C6.07132 2.5413 4.99382 3.21722 4.10561 4.10542C3.21741 4.99363 2.54149 6.07113 2.12839 7.25736C2.06746 7.51377 2.08912 7.78287 2.1903 8.02623C2.29147 8.26958 2.46697 8.47473 2.69172 8.61236L10.8642 13.129C11.1807 13.304 11.5454 13.3713 11.9035 13.3208C12.2615 13.2702 12.5935 13.1046 12.8491 12.849C13.1048 12.5933 13.2704 12.2614 13.321 11.9033C13.3715 11.5453 13.3042 11.1805 13.1292 10.864L8.61256 2.69153C8.47492 2.46678 8.26977 2.29128 8.02642 2.19011C7.78307 2.08893 7.51396 2.06727 7.25756 2.1282Z" stroke="black" stroke-width="1.66667" stroke-linecap="round" stroke-linejoin="round"/>
</svg>
