<svg width="20" height="20" viewBox="0 0 20 20" fill="none" xmlns="http://www.w3.org/2000/svg">
<path d="M8.33334 1.66667V3.33334" stroke="black" stroke-width="1.66667" stroke-linecap="round" stroke-linejoin="round"/>
<path d="M11.6667 1.66667V3.33334" stroke="black" stroke-width="1.66667" stroke-linecap="round" stroke-linejoin="round"/>
<path d="M13.3333 6.66667C13.5543 6.66667 13.7663 6.75447 13.9226 6.91075C14.0789 7.06703 14.1667 7.27899 14.1667 7.50001V14.1667C14.1667 15.0507 13.8155 15.8986 13.1904 16.5237C12.5652 17.1488 11.7174 17.5 10.8333 17.5H5.83333C4.94928 17.5 4.10143 17.1488 3.47631 16.5237C2.85119 15.8986 2.5 15.0507 2.5 14.1667V7.50001C2.5 7.27899 2.5878 7.06703 2.74408 6.91075C2.90036 6.75447 3.11232 6.66667 3.33333 6.66667H15C15.8841 6.66667 16.7319 7.01786 17.357 7.64298C17.9821 8.2681 18.3333 9.11595 18.3333 10C18.3333 10.8841 17.9821 11.7319 17.357 12.357C16.7319 12.9821 15.8841 13.3333 15 13.3333H14.1667" stroke="black" stroke-width="1.66667" stroke-linecap="round" stroke-linejoin="round"/>
<path d="M5 1.66667V3.33334" stroke="black" stroke-width="1.66667" stroke-linecap="round" stroke-linejoin="round"/>
</svg>
