<svg width="20" height="20" viewBox="0 0 20 20" fill="none" xmlns="http://www.w3.org/2000/svg">
<g clip-path="url(#clip0_386_4317)">
<path d="M10.9533 17.62C11.7617 16.8117 12.4512 15.9004 12.9826 14.9381C13.514 13.9759 13.8768 12.9816 14.0503 12.012C14.2238 11.0423 14.2047 10.1164 13.9939 9.28694C13.7832 8.45752 13.385 7.74089 12.822 7.17795C12.2591 6.61502 11.5425 6.21681 10.7131 6.00607C9.88364 5.79532 8.95768 5.77617 7.98804 5.94969C7.01841 6.12322 6.02409 6.48603 5.06186 7.01741C4.09963 7.54879 3.18833 8.23833 2.38 9.04667" stroke="black" stroke-width="1.66667" stroke-linecap="round" stroke-linejoin="round"/>
<path d="M10.9533 17.62C11.6356 16.9378 11.8382 15.8319 11.5167 14.5455C11.1952 13.2592 10.3759 11.8979 9.23902 10.761C8.10213 9.62408 6.74078 8.80477 5.45447 8.48327C4.16815 8.16178 3.06223 8.36444 2.38 9.04667C1.69777 9.7289 1.49511 10.8348 1.81661 12.1211C2.13811 13.4074 2.95742 14.7688 4.09432 15.9057C5.23121 17.0426 6.59256 17.8619 7.87887 18.1834C9.16519 18.5049 10.2711 18.3022 10.9533 17.62Z" stroke="black" stroke-width="1.66667" stroke-linecap="round" stroke-linejoin="round"/>
<path d="M13.8042 8.69583L15.5 7C15.7647 7.14669 16.0582 7.23396 16.3601 7.25574C16.662 7.27752 16.965 7.23329 17.2481 7.12613C17.5311 7.01897 17.7874 6.85144 17.9992 6.63519C18.211 6.41895 18.3731 6.15918 18.4743 5.87394C18.5755 5.58871 18.6134 5.28485 18.5853 4.98349C18.5572 4.68214 18.4638 4.39052 18.3116 4.12891C18.1594 3.8673 17.952 3.64198 17.7039 3.46861C17.4559 3.29524 17.173 3.17799 16.875 3.125C16.8167 2.83155 16.6958 2.5541 16.5206 2.31154C16.3455 2.06898 16.1201 1.867 15.8599 1.71933C15.5997 1.57166 15.3107 1.48177 15.0126 1.45578C14.7146 1.42979 14.4144 1.46831 14.1326 1.56871C13.8507 1.66911 13.5938 1.82904 13.3793 2.03762C13.1648 2.2462 12.9977 2.49854 12.8895 2.77746C12.7812 3.05639 12.7343 3.35536 12.7519 3.65403C12.7696 3.95271 12.8513 4.24408 12.9917 4.50833L11.305 6.19583" stroke="black" stroke-width="1.66667" stroke-linecap="round" stroke-linejoin="round"/>
<path d="M7.08333 13.75L6.25 12.9167" stroke="black" stroke-width="1.66667" stroke-linecap="round" stroke-linejoin="round"/>
</g>
<defs>
<clipPath id="clip0_386_4317">
<rect width="20" height="20" fill="white"/>
</clipPath>
</defs>
</svg>
