<svg width="20" height="20" viewBox="0 0 20 20" fill="none" xmlns="http://www.w3.org/2000/svg">
<path d="M10 4.16666C10 3.6722 10.1466 3.18886 10.4213 2.77773C10.696 2.36661 11.0865 2.04618 11.5433 1.85696C12.0001 1.66774 12.5028 1.61823 12.9877 1.71469C13.4727 1.81116 13.9181 2.04926 14.2678 2.39889C14.6174 2.74852 14.8555 3.19398 14.952 3.67893C15.0484 4.16388 14.9989 4.66655 14.8097 5.12337C14.6205 5.58018 14.3 5.97063 13.8889 6.24533C13.4778 6.52003 12.9945 6.66666 12.5 6.66666M10 4.16666C10 3.6722 9.85338 3.18886 9.57867 2.77773C9.30397 2.36661 8.91352 2.04618 8.45671 1.85696C7.99989 1.66774 7.49723 1.61823 7.01228 1.71469C6.52732 1.81116 6.08187 2.04926 5.73223 2.39889C5.3826 2.74852 5.1445 3.19398 5.04804 3.67893C4.95157 4.16388 5.00108 4.66655 5.1903 5.12337C5.37952 5.58018 5.69995 5.97063 6.11108 6.24533C6.5222 6.52003 7.00555 6.66666 7.5 6.66666M10 4.16666V4.99999M12.5 6.66666C12.9945 6.66666 13.4778 6.81328 13.8889 7.08798C14.3 7.36269 14.6205 7.75313 14.8097 8.20995C14.9989 8.66676 15.0484 9.16943 14.952 9.65438C14.8555 10.1393 14.6174 10.5848 14.2678 10.9344C13.9181 11.2841 13.4727 11.5222 12.9877 11.6186C12.5028 11.7151 12.0001 11.6656 11.5433 11.4764C11.0865 11.2871 10.696 10.9667 10.4213 10.5556C10.1466 10.1445 10 9.66111 10 9.16666M12.5 6.66666H11.6667M7.5 6.66666C7.00555 6.66666 6.5222 6.81328 6.11108 7.08798C5.69995 7.36269 5.37952 7.75313 5.1903 8.20995C5.00108 8.66676 4.95157 9.16943 5.04804 9.65438C5.1445 10.1393 5.3826 10.5848 5.73223 10.9344C6.08187 11.2841 6.52732 11.5222 7.01228 11.6186C7.49723 11.7151 7.99989 11.6656 8.45671 11.4764C8.91352 11.2871 9.30397 10.9667 9.57867 10.5556C9.85338 10.1445 10 9.66111 10 9.16666M7.5 6.66666H8.33333M10 9.16666V8.33332" stroke="black" stroke-width="1.66667" stroke-linecap="round" stroke-linejoin="round"/>
<path d="M10 8.33333C10.9205 8.33333 11.6667 7.58714 11.6667 6.66667C11.6667 5.74619 10.9205 5 10 5C9.07953 5 8.33334 5.74619 8.33334 6.66667C8.33334 7.58714 9.07953 8.33333 10 8.33333Z" stroke="black" stroke-width="1.66667" stroke-linecap="round" stroke-linejoin="round"/>
<path d="M10 8.33334V18.3333" stroke="black" stroke-width="1.66667" stroke-linecap="round" stroke-linejoin="round"/>
<path d="M10 18.3333C13.5 18.3333 15.8333 16.9442 15.8333 14.1667C12.3333 14.1667 10 15.5558 10 18.3333Z" stroke="black" stroke-width="1.66667" stroke-linecap="round" stroke-linejoin="round"/>
<path d="M10 18.3333C6.5 18.3333 4.16666 16.9442 4.16666 14.1667C7.66666 14.1667 10 15.5558 10 18.3333Z" stroke="black" stroke-width="1.66667" stroke-linecap="round" stroke-linejoin="round"/>
</svg>
