<svg width="18" height="18" viewBox="0 0 18 18" fill="none" xmlns="http://www.w3.org/2000/svg">
<g clip-path="url(#clip0_385_3797)">
<path d="M9 4.896V2.25C9 2.05109 9.07902 1.86032 9.21967 1.71967C9.36032 1.57902 9.55109 1.5 9.75 1.5" stroke="black" stroke-width="1.66667" stroke-linecap="round" stroke-linejoin="round"/>
<path d="M13.6778 15.75C15.5072 13.6812 16.5117 11.0117 16.5 8.25C16.5 7.38132 16.2485 6.53121 15.776 5.80229C15.3035 5.07336 14.6301 4.49679 13.8371 4.14216C13.0441 3.78753 12.1654 3.67001 11.3071 3.80377C10.4487 3.93754 9.64748 4.31688 9 4.896C8.35252 4.31688 7.55127 3.93754 6.69294 3.80377C5.83462 3.67001 4.95593 3.78753 4.16293 4.14216C3.36993 4.49679 2.69653 5.07336 2.224 5.80229C1.75147 6.53121 1.50002 7.38132 1.5 8.25C1.49527 11.0104 2.4989 13.6775 4.32225 15.75C4.65803 16.1256 5.11018 16.3777 5.60626 16.4658C6.10234 16.554 6.61364 16.473 7.05825 16.236C7.65582 15.9172 8.3227 15.7504 9 15.7504C9.6773 15.7504 10.3442 15.9172 10.9418 16.236C11.3864 16.473 11.8977 16.554 12.3937 16.4658C12.8898 16.3777 13.342 16.1256 13.6778 15.75Z" stroke="black" stroke-width="1.66667" stroke-linecap="round" stroke-linejoin="round"/>
</g>
<defs>
<clipPath id="clip0_385_3797">
<rect width="18" height="18" fill="white"/>
</clipPath>
</defs>
</svg>
