<svg width="20" height="20" viewBox="0 0 20 20" fill="none" xmlns="http://www.w3.org/2000/svg">
<path d="M5.83334 9.16666L9.23334 17.7917C9.29738 17.942 9.4042 18.0702 9.54051 18.1603C9.67682 18.2504 9.83661 18.2984 10 18.2984C10.1634 18.2984 10.3232 18.2504 10.4595 18.1603C10.5958 18.0702 10.7026 17.942 10.7667 17.7917L14.1667 9.16666" stroke="black" stroke-width="1.66667" stroke-linecap="round" stroke-linejoin="round"/>
<path d="M14.1667 5.83333C14.1667 4.72826 13.7277 3.66845 12.9463 2.88705C12.1649 2.10565 11.1051 1.66666 10 1.66666C8.89494 1.66666 7.83513 2.10565 7.05373 2.88705C6.27233 3.66845 5.83334 4.72826 5.83334 5.83333" stroke="black" stroke-width="1.66667" stroke-linecap="round" stroke-linejoin="round"/>
<path d="M14.1667 5.83334C14.6087 5.83334 15.0326 6.00893 15.3452 6.32149C15.6577 6.63405 15.8333 7.05798 15.8333 7.5C15.8333 7.94203 15.6577 8.36595 15.3452 8.67851C15.0326 8.99107 14.6087 9.16667 14.1667 9.16667H5.83332C5.3913 9.16667 4.96737 8.99107 4.65481 8.67851C4.34225 8.36595 4.16666 7.94203 4.16666 7.5C4.16666 7.05798 4.34225 6.63405 4.65481 6.32149C4.96737 6.00893 5.3913 5.83334 5.83332 5.83334" stroke="black" stroke-width="1.66667" stroke-linecap="round" stroke-linejoin="round"/>
</svg>
