<svg width="20" height="20" viewBox="0 0 20 20" fill="none" xmlns="http://www.w3.org/2000/svg">
<path d="M6.66666 1.66667H13.3333" stroke="black" stroke-width="1.85185" stroke-linecap="round" stroke-linejoin="round"/>
<path d="M7.5 1.66667V3.99083C7.49999 4.64899 7.30513 5.29241 6.94 5.84L6.39334 6.66C6.02805 7.20782 5.83319 7.85156 5.83334 8.51V16.6667C5.83334 17.1087 6.00893 17.5326 6.32149 17.8452C6.63405 18.1577 7.05798 18.3333 7.5 18.3333H12.5C12.942 18.3333 13.366 18.1577 13.6785 17.8452C13.9911 17.5326 14.1667 17.1087 14.1667 16.6667V8.50917C14.1667 7.85101 13.9718 7.20759 13.6067 6.66L13.06 5.84C12.6947 5.29218 12.4999 4.64844 12.5 3.99V1.66667" stroke="black" stroke-width="1.85185" stroke-linecap="round" stroke-linejoin="round"/>
<path d="M5.83334 12.5C6.49315 12.2237 7.20133 12.0814 7.91667 12.0814C8.632 12.0814 9.34019 12.2237 10 12.5C10.6598 12.7764 11.368 12.9188 12.0833 12.9188C12.7987 12.9188 13.5069 12.7764 14.1667 12.5" stroke="black" stroke-width="1.85185" stroke-linecap="round" stroke-linejoin="round"/>
</svg>
