<svg width="20" height="20" viewBox="0 0 20 20" fill="none" xmlns="http://www.w3.org/2000/svg">
<g clip-path="url(#clip0_385_3801)">
<path d="M9.16666 10H9.175" stroke="black" stroke-width="1.66667" stroke-linecap="round" stroke-linejoin="round"/>
<path d="M10.8333 18.3333C11.25 17.9167 11.7667 17.5 12.9167 17.5C11.7667 17.5 11.25 17.0833 10.8333 16.6667" stroke="black" stroke-width="1.66667" stroke-linecap="round" stroke-linejoin="round"/>
<path d="M11.6667 1.66666C11.4208 2.15762 11.0327 2.56314 10.5531 2.8304C10.0734 3.09765 9.52437 3.21425 8.9775 3.16499L3.83583 2.69749C3.56738 2.67167 3.29648 2.7007 3.0396 2.78283C2.78273 2.86496 2.54523 2.99847 2.34155 3.17524C2.13788 3.35201 1.97227 3.56835 1.8548 3.81111C1.73734 4.05388 1.67046 4.31799 1.65825 4.5874C1.64603 4.85681 1.68872 5.1259 1.78373 5.3783C1.87874 5.63069 2.02409 5.86114 2.21093 6.05562C2.39777 6.2501 2.62221 6.40455 2.8706 6.5096C3.11899 6.61464 3.38615 6.66807 3.65583 6.66666H12.9167C14.3533 6.66666 15.731 7.23734 16.7468 8.25316C17.7626 9.26898 18.3333 10.6467 18.3333 12.0833C18.3333 13.5199 17.7626 14.8977 16.7468 15.9135C15.731 16.9293 14.3533 17.5 12.9167 17.5C13.4692 17.5 13.9991 17.2805 14.3898 16.8898C14.7805 16.4991 15 15.9692 15 15.4167C15 14.8641 14.7805 14.3342 14.3898 13.9435C13.9991 13.5528 13.4692 13.3333 12.9167 13.3333H10C8.4529 13.3333 6.96917 12.7187 5.87521 11.6248C4.78125 10.5308 4.16666 9.04709 4.16666 7.49999V6.66666" stroke="black" stroke-width="1.66667" stroke-linecap="round" stroke-linejoin="round"/>
<path d="M11.6667 6.66666C12.2138 7.69254 12.5 8.83733 12.5 9.99999C12.5 11.1627 12.2138 12.3074 11.6667 13.3333" stroke="black" stroke-width="1.66667" stroke-linecap="round" stroke-linejoin="round"/>
<path d="M13.3333 13.3333C15 13.3333 17.0833 10 16.6667 8.33334" stroke="black" stroke-width="1.66667" stroke-linecap="round" stroke-linejoin="round"/>
</g>
<defs>
<clipPath id="clip0_385_3801">
<rect width="20" height="20" fill="white"/>
</clipPath>
</defs>
</svg>
