<svg width="20" height="20" viewBox="0 0 20 20" fill="none" xmlns="http://www.w3.org/2000/svg">
<path d="M18.452 8.0992C17.161 6.5728 14.3375 4 10 4C5.66254 4 2.82972 6.5728 1.5387 8.0992C0.786376 8.992 0.823528 10.336 1.64087 11.1712C1.92879 11.4592 2.24458 11.6512 2.53251 11.7856C2.36532 12.208 2.27244 12.6688 2.27244 13.1488C2.27244 14.7232 3.50774 16 5.03096 16H14.9598C16.483 16 17.7183 14.7232 17.7183 13.1488C17.7183 12.6688 17.6161 12.208 17.4489 11.776C17.8669 11.584 18.1919 11.3248 18.387 11.1232C19.1765 10.288 19.195 8.992 18.4427 8.0992H18.452ZM11.5232 5.5744C11.4303 5.8816 11.3282 6.1792 11.2353 6.5056C10.5387 9.088 10.3158 11.7952 10.5201 14.56H8.08669C7.87306 11.92 8.08669 9.3472 8.74613 6.8992C8.86687 6.4576 8.9969 6.0256 9.13622 5.6224C9.14551 5.584 9.13622 5.5456 9.1548 5.5072C9.43344 5.4784 9.70279 5.4496 9.99071 5.4496C10.5294 5.4496 11.031 5.5072 11.5232 5.584V5.5744ZM2.58823 9.0496C3.47059 8.0032 5.16099 6.4288 7.64087 5.7664C7.56656 6.016 7.48297 6.256 7.41796 6.5152C7.19505 7.3312 7.03715 8.1568 6.90712 8.992C6.08978 9.1744 5.29102 9.4144 4.52941 9.7408C4.06501 9.9328 3.66563 10.2208 3.33127 10.5664C3.12693 10.5088 2.86687 10.3936 2.63467 10.1536C2.34675 9.8656 2.33746 9.3856 2.60681 9.0592L2.58823 9.0496ZM3.66563 13.1488C3.66563 12.2272 4.20433 11.4112 5.04025 11.0656C5.57895 10.8352 6.13622 10.6624 6.71207 10.5088C6.59133 11.8336 6.60062 13.1872 6.70279 14.56H5.04025C4.28792 14.56 3.67492 13.9264 3.67492 13.1488H3.66563ZM14.9598 14.56H11.9226C11.8019 13.0912 11.8204 11.6416 11.9783 10.2304C13 10.3936 14.0031 10.672 14.9598 11.0752C15.7864 11.4208 16.3251 12.2368 16.3251 13.1584C16.3251 13.936 15.7121 14.5696 14.9598 14.5696V14.56ZM17.3653 10.144C17.2724 10.24 17.0217 10.4416 16.6594 10.5472C16.3251 10.2016 15.935 9.9232 15.4799 9.7312C14.4118 9.28 13.2972 8.9728 12.1641 8.7904C12.2755 8.1472 12.4149 7.5136 12.582 6.8896C12.6749 6.5536 12.7771 6.2368 12.8793 5.92C15.0619 6.6592 16.5851 8.08 17.4025 9.0496C17.6718 9.3664 17.6718 9.8272 17.3653 10.144Z" fill="black"/>
</svg>
