<svg width="28" height="37" viewBox="0 0 28 37" fill="none" xmlns="http://www.w3.org/2000/svg">
<path d="M28 15.1667C28 26.0555 14 35.3889 14 35.3889C14 35.3889 0 26.0555 0 15.1667C5.53285e-08 11.4536 1.475 7.89267 4.1005 5.26716C6.72601 2.64165 10.287 1.16666 14 1.16666C17.713 1.16666 21.274 2.64165 23.8995 5.26716C26.525 7.89267 28 11.4536 28 15.1667Z" fill="#615445"/>
<path d="M13.5 8.22211V9.72211" stroke="white" stroke-width="1.5" stroke-linecap="round" stroke-linejoin="round"/>
<path d="M16.5 8.22211V9.72211" stroke="white" stroke-width="1.5" stroke-linecap="round" stroke-linejoin="round"/>
<path d="M18 12.7221C18.1989 12.7221 18.3897 12.8011 18.5303 12.9418C18.671 13.0824 18.75 13.2732 18.75 13.4721V19.4721C18.75 20.2678 18.4339 21.0308 17.8713 21.5934C17.3087 22.156 16.5456 22.4721 15.75 22.4721H11.25C10.4544 22.4721 9.69129 22.156 9.12868 21.5934C8.56607 21.0308 8.25 20.2678 8.25 19.4721V13.4721C8.25 13.2732 8.32902 13.0824 8.46967 12.9418C8.61032 12.8011 8.80109 12.7221 9 12.7221H19.5C20.2956 12.7221 21.0587 13.0382 21.6213 13.6008C22.1839 14.1634 22.5 14.9265 22.5 15.7221C22.5 16.5178 22.1839 17.2808 21.6213 17.8434C21.0587 18.406 20.2956 18.7221 19.5 18.7221H18.75" stroke="white" stroke-width="1.5" stroke-linecap="round" stroke-linejoin="round"/>
<path d="M10.5 8.22211V9.72211" stroke="white" stroke-width="1.5" stroke-linecap="round" stroke-linejoin="round"/>
</svg>
