<svg width="28" height="37" viewBox="0 0 28 37" fill="none" xmlns="http://www.w3.org/2000/svg">
<path d="M28 15.1667C28 26.0555 14 35.3889 14 35.3889C14 35.3889 0 26.0555 0 15.1667C5.53285e-08 11.4536 1.475 7.89267 4.1005 5.26716C6.72601 2.64165 10.287 1.16666 14 1.16666C17.713 1.16666 21.274 2.64165 23.8995 5.26716C26.525 7.89267 28 11.4536 28 15.1667Z" fill="#794509"/>
<g clip-path="url(#clip0_292_6262)">
<path d="M14.858 22.469C15.5855 21.7415 16.2061 20.9213 16.6843 20.0553C17.1626 19.1893 17.4891 18.2944 17.6453 17.4218C17.8014 16.5491 17.7842 15.7157 17.5945 14.9693C17.4049 14.2228 17.0465 13.5778 16.5398 13.0712C16.0332 12.5645 15.3882 12.2062 14.6418 12.0165C13.8953 11.8268 13.0619 11.8096 12.1892 11.9657C11.3166 12.1219 10.4217 12.4484 9.55568 12.9267C8.68967 13.4049 7.8695 14.0255 7.142 14.753" stroke="white" stroke-width="1.5" stroke-linecap="round" stroke-linejoin="round"/>
<path d="M14.858 22.469C15.472 21.855 15.6544 20.8597 15.3651 19.702C15.0757 18.5443 14.3383 17.3191 13.3151 16.2959C12.2919 15.2727 11.0667 14.5353 9.90902 14.246C8.75134 13.9566 7.75601 14.139 7.142 14.753C6.528 15.367 6.3456 16.3624 6.63495 17.5201C6.9243 18.6777 7.66168 19.9029 8.68489 20.9262C9.70809 21.9494 10.9333 22.6867 12.091 22.9761C13.2487 23.2654 14.244 23.083 14.858 22.469Z" stroke="white" stroke-width="1.5" stroke-linecap="round" stroke-linejoin="round"/>
<path d="M17.4237 14.4373L18.95 12.911C19.1883 13.043 19.4524 13.1216 19.7241 13.1412C19.9958 13.1608 20.2685 13.121 20.5233 13.0245C20.778 12.9281 21.0087 12.7773 21.1993 12.5827C21.3899 12.3881 21.5358 12.1543 21.6269 11.8976C21.718 11.6408 21.752 11.3674 21.7268 11.0961C21.7015 10.8249 21.6174 10.5625 21.4804 10.327C21.3435 10.0916 21.1568 9.88879 20.9336 9.73275C20.7103 9.57672 20.4557 9.4712 20.1875 9.42351C20.135 9.1594 20.0262 8.9097 19.8686 8.6914C19.7109 8.47309 19.5081 8.29131 19.2739 8.1584C19.0397 8.0255 18.7796 7.9446 18.5114 7.92121C18.2431 7.89782 17.973 7.93248 17.7193 8.02284C17.4656 8.1132 17.2344 8.25714 17.0414 8.44486C16.8483 8.63259 16.6979 8.85969 16.6005 9.11072C16.5031 9.36176 16.4609 9.63083 16.4768 9.89964C16.4926 10.1684 16.5662 10.4307 16.6925 10.6685L15.1745 12.1873" stroke="white" stroke-width="1.5" stroke-linecap="round" stroke-linejoin="round"/>
<path d="M11.375 18.986L10.625 18.236" stroke="white" stroke-width="1.5" stroke-linecap="round" stroke-linejoin="round"/>
</g>
<defs>
<clipPath id="clip0_292_6262">
<rect width="18" height="18" fill="white" transform="translate(5 6.61102)"/>
</clipPath>
</defs>
</svg>
