<svg width="28" height="37" viewBox="0 0 28 37" fill="none" xmlns="http://www.w3.org/2000/svg">
<path d="M28 15.1666C28 26.0555 14 35.3889 14 35.3889C14 35.3889 0 26.0555 0 15.1666C5.53285e-08 11.4536 1.475 7.89264 4.1005 5.26713C6.72601 2.64162 10.287 1.16663 14 1.16663C17.713 1.16663 21.274 2.64162 23.8995 5.26713C26.525 7.89264 28 11.4536 28 15.1666Z" fill="#638E71"/>
<g clip-path="url(#clip0_366_3929)">
<path d="M14 10.2498C14 9.80481 14.132 9.3698 14.3792 8.99979C14.6264 8.62977 14.9778 8.34139 15.389 8.17109C15.8001 8.00079 16.2525 7.95623 16.689 8.04305C17.1254 8.12987 17.5263 8.34416 17.841 8.65883C18.1557 8.9735 18.37 9.37441 18.4568 9.81086C18.5436 10.2473 18.499 10.6997 18.3287 11.1109C18.1584 11.522 17.87 11.8734 17.5 12.1206C17.13 12.3679 16.695 12.4998 16.25 12.4998M14 10.2498C14 9.80481 13.868 9.3698 13.6208 8.99979C13.3736 8.62977 13.0222 8.34139 12.611 8.17109C12.1999 8.00079 11.7475 7.95623 11.311 8.04305C10.8746 8.12987 10.4737 8.34416 10.159 8.65883C9.84434 8.9735 9.63005 9.37441 9.54323 9.81086C9.45642 10.2473 9.50097 10.6997 9.67127 11.1109C9.84157 11.522 10.13 11.8734 10.5 12.1206C10.87 12.3679 11.305 12.4998 11.75 12.4998M14 10.2498V10.9998M16.25 12.4998C16.695 12.4998 17.13 12.6318 17.5 12.879C17.87 13.1262 18.1584 13.4776 18.3287 13.8888C18.499 14.2999 18.5436 14.7523 18.4568 15.1888C18.37 15.6252 18.1557 16.0261 17.841 16.3408C17.5263 16.6555 17.1254 16.8698 16.689 16.9566C16.2525 17.0434 15.8001 16.9988 15.389 16.8285C14.9778 16.6582 14.6264 16.3699 14.3792 15.9999C14.132 15.6298 14 15.1948 14 14.7498M16.25 12.4998H15.5M11.75 12.4998C11.305 12.4998 10.87 12.6318 10.5 12.879C10.13 13.1262 9.84157 13.4776 9.67127 13.8888C9.50097 14.2999 9.45642 14.7523 9.54323 15.1888C9.63005 15.6252 9.84434 16.0261 10.159 16.3408C10.4737 16.6555 10.8746 16.8698 11.311 16.9566C11.7475 17.0434 12.1999 16.9988 12.611 16.8285C13.0222 16.6582 13.3736 16.3699 13.6208 15.9999C13.868 15.6298 14 15.1948 14 14.7498M11.75 12.4998H12.5M14 14.7498V13.9998" stroke="white" stroke-width="1.5" stroke-linecap="round" stroke-linejoin="round"/>
<path d="M14 13.9998C14.8284 13.9998 15.5 13.3282 15.5 12.4998C15.5 11.6714 14.8284 10.9998 14 10.9998C13.1716 10.9998 12.5 11.6714 12.5 12.4998C12.5 13.3282 13.1716 13.9998 14 13.9998Z" stroke="white" stroke-width="1.5" stroke-linecap="round" stroke-linejoin="round"/>
<path d="M14 13.9998V22.9998" stroke="white" stroke-width="1.5" stroke-linecap="round" stroke-linejoin="round"/>
<path d="M14 22.9998C17.15 22.9998 19.25 21.7496 19.25 19.2498C16.1 19.2498 14 20.5001 14 22.9998Z" stroke="white" stroke-width="1.5" stroke-linecap="round" stroke-linejoin="round"/>
<path d="M14 22.9998C10.85 22.9998 8.75 21.7496 8.75 19.2498C11.9 19.2498 14 20.5001 14 22.9998Z" stroke="white" stroke-width="1.5" stroke-linecap="round" stroke-linejoin="round"/>
</g>
<defs>
<clipPath id="clip0_366_3929">
<rect width="18" height="18" fill="white" transform="translate(5 6.49982)"/>
</clipPath>
</defs>
</svg>
