<svg width="28" height="37" viewBox="0 0 28 37" fill="none" xmlns="http://www.w3.org/2000/svg">
<path d="M28 15.1666C28 26.0555 14 35.3889 14 35.3889C14 35.3889 0 26.0555 0 15.1666C5.53285e-08 11.4536 1.475 7.89264 4.1005 5.26713C6.72601 2.64162 10.287 1.16663 14 1.16663C17.713 1.16663 21.274 2.64162 23.8995 5.26713C26.525 7.89264 28 11.4536 28 15.1666Z" fill="#8A38F5"/>
<path d="M10.25 15.361L13.31 23.1235C13.3676 23.2588 13.4638 23.3741 13.5865 23.4552C13.7091 23.5363 13.853 23.5795 14 23.5795C14.1471 23.5795 14.2909 23.5363 14.4136 23.4552C14.5362 23.3741 14.6324 23.2588 14.69 23.1235L17.75 15.361" stroke="white" stroke-width="1.5" stroke-linecap="round" stroke-linejoin="round"/>
<path d="M17.75 12.361C17.75 11.3664 17.3549 10.4126 16.6517 9.70931C15.9484 9.00605 14.9946 8.61096 14 8.61096C13.0054 8.61096 12.0516 9.00605 11.3484 9.70931C10.6451 10.4126 10.25 11.3664 10.25 12.361" stroke="white" stroke-width="1.5" stroke-linecap="round" stroke-linejoin="round"/>
<path d="M17.75 12.361C18.1478 12.361 18.5293 12.519 18.8107 12.8003C19.092 13.0816 19.25 13.4631 19.25 13.861C19.25 14.2588 19.092 14.6403 18.8107 14.9216C18.5293 15.2029 18.1478 15.361 17.75 15.361H10.25C9.85217 15.361 9.47064 15.2029 9.18933 14.9216C8.90803 14.6403 8.74999 14.2588 8.74999 13.861C8.74999 13.4631 8.90803 13.0816 9.18933 12.8003C9.47064 12.519 9.85217 12.361 10.25 12.361" stroke="white" stroke-width="1.5" stroke-linecap="round" stroke-linejoin="round"/>
</svg>
