<svg width="28" height="37" viewBox="0 0 28 37" fill="none" xmlns="http://www.w3.org/2000/svg">
<path d="M28 15.1667C28 26.0556 14 35.3889 14 35.3889C14 35.3889 0 26.0556 0 15.1667C5.53285e-08 11.4536 1.475 7.89269 4.1005 5.26718C6.72601 2.64167 10.287 1.16667 14 1.16667C17.713 1.16667 21.274 2.64167 23.8995 5.26718C26.525 7.89269 28 11.4536 28 15.1667Z" fill="#BE893F"/>
<g clip-path="url(#clip0_56_1002)">
<path d="M13.3167 21.7777H9.2472C9.02524 21.7701 8.81052 21.6969 8.63007 21.5675C8.44963 21.438 8.31153 21.258 8.2332 21.0502C7.77627 19.4554 7.81077 17.7599 8.3322 16.185" stroke="white" stroke-width="1.5" stroke-linecap="round" stroke-linejoin="round"/>
<path d="M19.1666 15.9277V11.8582C19.159 11.6362 19.0858 11.4215 18.9564 11.2411C18.8269 11.0606 18.6469 10.9225 18.4391 10.8442C16.8445 10.3874 15.1493 10.4219 13.5746 10.9432" stroke="white" stroke-width="1.5" stroke-linecap="round" stroke-linejoin="round"/>
<path d="M19.1667 12.0278C19.9624 12.0278 20.7254 12.2648 21.2881 12.6868C21.8507 13.1087 22.1667 13.681 22.1667 14.2778C22.1667 14.6756 22.0087 15.0571 21.7274 15.3384C21.4461 15.6197 21.0646 15.7778 20.6667 15.7778C19.3093 15.7774 17.9772 16.1455 16.8125 16.8428" stroke="white" stroke-width="1.5" stroke-linecap="round" stroke-linejoin="round"/>
<path d="M9.41667 21.7777C9.41667 22.5733 9.65372 23.3364 10.0757 23.899C10.4976 24.4616 11.0699 24.7777 11.6667 24.7777C12.0645 24.7777 12.446 24.6196 12.7273 24.3383C13.0086 24.057 13.1667 23.6755 13.1667 23.2777C13.1662 21.9199 13.5343 20.5876 14.2317 19.4227" stroke="white" stroke-width="1.5" stroke-linecap="round" stroke-linejoin="round"/>
<path d="M12.1985 10.1931C11.1309 10.5649 10.1611 11.1733 9.36173 11.9726C8.56234 12.772 7.95401 13.7418 7.58222 14.8094C7.52738 15.0402 7.54689 15.2823 7.63794 15.5014C7.729 15.7204 7.88695 15.905 8.08922 16.0289L15.4445 20.0939C15.7293 20.2514 16.0576 20.3119 16.3798 20.2664C16.7021 20.221 17.0008 20.0719 17.2309 19.8418C17.461 19.6117 17.6101 19.313 17.6555 18.9907C17.701 18.6685 17.6404 18.3402 17.483 18.0554L13.418 10.7001C13.2941 10.4979 13.1095 10.3399 12.8905 10.2489C12.6714 10.1578 12.4292 10.1383 12.1985 10.1931Z" stroke="white" stroke-width="1.5" stroke-linecap="round" stroke-linejoin="round"/>
</g>
<defs>
<clipPath id="clip0_56_1002">
<rect width="18" height="18" fill="white" transform="translate(5.66667 8.27777)"/>
</clipPath>
</defs>
</svg>
