<svg width="28" height="37" viewBox="0 0 28 37" fill="none" xmlns="http://www.w3.org/2000/svg">
<path d="M28 15.1666C28 26.0555 14 35.3889 14 35.3889C14 35.3889 0 26.0555 0 15.1666C5.53285e-08 11.4536 1.475 7.89264 4.1005 5.26713C6.72601 2.64162 10.287 1.16663 14 1.16663C17.713 1.16663 21.274 2.64162 23.8995 5.26713C26.525 7.89264 28 11.4536 28 15.1666Z" fill="#3F76BE"/>
<g clip-path="url(#clip0_366_3925)">
<path d="M13.25 16.0554H13.2575" stroke="white" stroke-width="1.5" stroke-linecap="round" stroke-linejoin="round"/>
<path d="M14.75 23.5554C15.125 23.1804 15.59 22.8054 16.625 22.8054C15.59 22.8054 15.125 22.4304 14.75 22.0554" stroke="white" stroke-width="1.5" stroke-linecap="round" stroke-linejoin="round"/>
<path d="M15.5 8.55536C15.2787 8.99722 14.9295 9.3622 14.4978 9.60273C14.0661 9.84326 13.5719 9.94819 13.0797 9.90386L8.45225 9.48311C8.21064 9.45987 7.96684 9.486 7.73565 9.55992C7.50445 9.63383 7.29071 9.75399 7.1074 9.91308C6.92409 10.0722 6.77505 10.2669 6.66933 10.4854C6.56361 10.7039 6.50342 10.9416 6.49242 11.184C6.48143 11.4265 6.51985 11.6687 6.60536 11.8958C6.69087 12.123 6.82168 12.3304 6.98984 12.5054C7.15799 12.6805 7.35999 12.8195 7.58354 12.914C7.80709 13.0085 8.04753 13.0566 8.29025 13.0554H16.625C17.9179 13.0554 19.1579 13.569 20.0721 14.4832C20.9864 15.3975 21.5 16.6374 21.5 17.9304C21.5 19.2233 20.9864 20.4633 20.0721 21.3775C19.1579 22.2917 17.9179 22.8054 16.625 22.8054C17.1223 22.8054 17.5992 22.6078 17.9508 22.2562C18.3025 21.9046 18.5 21.4276 18.5 20.9304C18.5 20.4331 18.3025 19.9562 17.9508 19.6045C17.5992 19.2529 17.1223 19.0554 16.625 19.0554H14C12.6076 19.0554 11.2723 18.5022 10.2877 17.5177C9.30312 16.5331 8.75 15.1977 8.75 13.8054V13.0554" stroke="white" stroke-width="1.5" stroke-linecap="round" stroke-linejoin="round"/>
<path d="M15.5 13.0554C15.9924 13.9787 16.25 15.009 16.25 16.0554C16.25 17.1018 15.9924 18.1321 15.5 19.0554" stroke="white" stroke-width="1.5" stroke-linecap="round" stroke-linejoin="round"/>
<path d="M17 19.0554C18.5 19.0554 20.375 16.0554 20 14.5554" stroke="white" stroke-width="1.5" stroke-linecap="round" stroke-linejoin="round"/>
</g>
<defs>
<clipPath id="clip0_366_3925">
<rect width="18" height="18" fill="white" transform="translate(5 7.05536)"/>
</clipPath>
</defs>
</svg>
