<svg width="28" height="37" viewBox="0 0 28 37" fill="none" xmlns="http://www.w3.org/2000/svg">
<path d="M28 15.1666C28 26.0555 14 35.3889 14 35.3889C14 35.3889 0 26.0555 0 15.1666C5.53285e-08 11.4536 1.475 7.89264 4.1005 5.26713C6.72601 2.64162 10.287 1.16663 14 1.16663C17.713 1.16663 21.274 2.64162 23.8995 5.26713C26.525 7.89264 28 11.4536 28 15.1666Z" fill="#3F76BE"/>
<g clip-path="url(#clip0_366_3925)">
<path d="M13.9167 16.0554H13.9242" stroke="white" stroke-width="1.5" stroke-linecap="round" stroke-linejoin="round"/>
<path d="M15.4167 23.5554C15.7917 23.1804 16.2567 22.8054 17.2917 22.8054C16.2567 22.8054 15.7917 22.4304 15.4167 22.0554" stroke="white" stroke-width="1.5" stroke-linecap="round" stroke-linejoin="round"/>
<path d="M16.1667 8.55536C15.9454 8.99722 15.5961 9.3622 15.1644 9.60273C14.7327 9.84326 14.2386 9.94819 13.7464 9.90386L9.11892 9.48311C8.87731 9.45987 8.63351 9.486 8.40231 9.55992C8.17112 9.63383 7.95738 9.75399 7.77407 9.91308C7.59076 10.0722 7.44171 10.2669 7.33599 10.4854C7.23027 10.7039 7.17009 10.9416 7.15909 11.184C7.1481 11.4265 7.18652 11.6687 7.27203 11.8958C7.35754 12.123 7.48835 12.3304 7.65651 12.5054C7.82466 12.6805 8.02666 12.8195 8.25021 12.914C8.47376 13.0085 8.7142 13.0566 8.95692 13.0554H17.2917C18.5846 13.0554 19.8246 13.569 20.7388 14.4832C21.6531 15.3975 22.1667 16.6374 22.1667 17.9304C22.1667 19.2233 21.6531 20.4633 20.7388 21.3775C19.8246 22.2917 18.5846 22.8054 17.2917 22.8054C17.7889 22.8054 18.2659 22.6078 18.6175 22.2562C18.9691 21.9046 19.1667 21.4276 19.1667 20.9304C19.1667 20.4331 18.9691 19.9562 18.6175 19.6045C18.2659 19.2529 17.7889 19.0554 17.2917 19.0554H14.6667C13.2743 19.0554 11.9389 18.5022 10.9544 17.5177C9.96979 16.5331 9.41667 15.1977 9.41667 13.8054V13.0554" stroke="white" stroke-width="1.5" stroke-linecap="round" stroke-linejoin="round"/>
<path d="M16.1667 13.0554C16.6591 13.9787 16.9167 15.009 16.9167 16.0554C16.9167 17.1018 16.6591 18.1321 16.1667 19.0554" stroke="white" stroke-width="1.5" stroke-linecap="round" stroke-linejoin="round"/>
<path d="M17.6667 19.0554C19.1667 19.0554 21.0417 16.0554 20.6667 14.5554" stroke="white" stroke-width="1.5" stroke-linecap="round" stroke-linejoin="round"/>
</g>
<defs>
<clipPath id="clip0_366_3925">
<rect width="18" height="18" fill="white" transform="translate(5.66667 7.05536)"/>
</clipPath>
</defs>
</svg>
