<svg width="28" height="37" viewBox="0 0 28 37" fill="none" xmlns="http://www.w3.org/2000/svg">
<path d="M28 15.1667C28 26.0555 14 35.3889 14 35.3889C14 35.3889 0 26.0555 0 15.1667C5.53285e-08 11.4536 1.475 7.89267 4.1005 5.26716C6.72601 2.64165 10.287 1.16666 14 1.16666C17.713 1.16666 21.274 2.64165 23.8995 5.26716C26.525 7.89267 28 11.4536 28 15.1667Z" fill="#615445"/>
<path d="M13.1667 8.22211V9.72211" stroke="white" stroke-width="1.5" stroke-linecap="round" stroke-linejoin="round"/>
<path d="M16.1667 8.22211V9.72211" stroke="white" stroke-width="1.5" stroke-linecap="round" stroke-linejoin="round"/>
<path d="M17.6667 12.7221C17.8656 12.7221 18.0563 12.8011 18.197 12.9418C18.3377 13.0824 18.4167 13.2732 18.4167 13.4721V19.4721C18.4167 20.2678 18.1006 21.0308 17.538 21.5934C16.9754 22.156 16.2123 22.4721 15.4167 22.4721H10.9167C10.121 22.4721 9.35796 22.156 8.79535 21.5934C8.23274 21.0308 7.91667 20.2678 7.91667 19.4721V13.4721C7.91667 13.2732 7.99569 13.0824 8.13634 12.9418C8.27699 12.8011 8.46776 12.7221 8.66667 12.7221H19.1667C19.9623 12.7221 20.7254 13.0382 21.288 13.6008C21.8506 14.1634 22.1667 14.9265 22.1667 15.7221C22.1667 16.5178 21.8506 17.2808 21.288 17.8434C20.7254 18.406 19.9623 18.7221 19.1667 18.7221H18.4167" stroke="white" stroke-width="1.5" stroke-linecap="round" stroke-linejoin="round"/>
<path d="M10.1667 8.22211V9.72211" stroke="white" stroke-width="1.5" stroke-linecap="round" stroke-linejoin="round"/>
</svg>
