<svg width="28" height="37" viewBox="0 0 28 37" fill="none" xmlns="http://www.w3.org/2000/svg">
<path d="M28 15.1666C28 26.0555 14 35.3889 14 35.3889C14 35.3889 0 26.0555 0 15.1666C5.53285e-08 11.4536 1.475 7.89264 4.1005 5.26713C6.72601 2.64162 10.287 1.16663 14 1.16663C17.713 1.16663 21.274 2.64162 23.8995 5.26713C26.525 7.89264 28 11.4536 28 15.1666Z" fill="#638E71"/>
<g clip-path="url(#clip0_366_3929)">
<path d="M14.6667 10.2498C14.6667 9.80481 14.7986 9.3698 15.0459 8.99979C15.2931 8.62977 15.6445 8.34139 16.0556 8.17109C16.4668 8.00079 16.9192 7.95623 17.3556 8.04305C17.7921 8.12987 18.193 8.34416 18.5077 8.65883C18.8223 8.9735 19.0366 9.37441 19.1234 9.81086C19.2103 10.2473 19.1657 10.6997 18.9954 11.1109C18.8251 11.522 18.5367 11.8734 18.1667 12.1206C17.7967 12.3679 17.3617 12.4998 16.9167 12.4998M14.6667 10.2498C14.6667 9.80481 14.5347 9.3698 14.2875 8.99979C14.0402 8.62977 13.6888 8.34139 13.2777 8.17109C12.8666 8.00079 12.4142 7.95623 11.9777 8.04305C11.5413 8.12987 11.1403 8.34416 10.8257 8.65883C10.511 8.9735 10.2967 9.37441 10.2099 9.81086C10.1231 10.2473 10.1676 10.6997 10.3379 11.1109C10.5082 11.522 10.7966 11.8734 11.1666 12.1206C11.5366 12.3679 11.9717 12.4998 12.4167 12.4998M14.6667 10.2498V10.9998M16.9167 12.4998C17.3617 12.4998 17.7967 12.6318 18.1667 12.879C18.5367 13.1262 18.8251 13.4776 18.9954 13.8888C19.1657 14.2999 19.2103 14.7523 19.1234 15.1888C19.0366 15.6252 18.8223 16.0261 18.5077 16.3408C18.193 16.6555 17.7921 16.8698 17.3556 16.9566C16.9192 17.0434 16.4668 16.9988 16.0556 16.8285C15.6445 16.6582 15.2931 16.3699 15.0459 15.9999C14.7986 15.6298 14.6667 15.1948 14.6667 14.7498M16.9167 12.4998H16.1667M12.4167 12.4998C11.9717 12.4998 11.5366 12.6318 11.1666 12.879C10.7966 13.1262 10.5082 13.4776 10.3379 13.8888C10.1676 14.2999 10.1231 14.7523 10.2099 15.1888C10.2967 15.6252 10.511 16.0261 10.8257 16.3408C11.1403 16.6555 11.5413 16.8698 11.9777 16.9566C12.4142 17.0434 12.8666 16.9988 13.2777 16.8285C13.6888 16.6582 14.0402 16.3699 14.2875 15.9999C14.5347 15.6298 14.6667 15.1948 14.6667 14.7498M12.4167 12.4998H13.1667M14.6667 14.7498V13.9998" stroke="white" stroke-width="1.5" stroke-linecap="round" stroke-linejoin="round"/>
<path d="M14.6667 13.9998C15.4951 13.9998 16.1667 13.3282 16.1667 12.4998C16.1667 11.6714 15.4951 10.9998 14.6667 10.9998C13.8382 10.9998 13.1667 11.6714 13.1667 12.4998C13.1667 13.3282 13.8382 13.9998 14.6667 13.9998Z" stroke="white" stroke-width="1.5" stroke-linecap="round" stroke-linejoin="round"/>
<path d="M14.6667 13.9998V22.9998" stroke="white" stroke-width="1.5" stroke-linecap="round" stroke-linejoin="round"/>
<path d="M14.6667 22.9998C17.8167 22.9998 19.9167 21.7496 19.9167 19.2498C16.7667 19.2498 14.6667 20.5001 14.6667 22.9998Z" stroke="white" stroke-width="1.5" stroke-linecap="round" stroke-linejoin="round"/>
<path d="M14.6667 22.9998C11.5167 22.9998 9.41667 21.7496 9.41667 19.2498C12.5667 19.2498 14.6667 20.5001 14.6667 22.9998Z" stroke="white" stroke-width="1.5" stroke-linecap="round" stroke-linejoin="round"/>
</g>
<defs>
<clipPath id="clip0_366_3929">
<rect width="18" height="18" fill="white" transform="translate(5.66667 6.49982)"/>
</clipPath>
</defs>
</svg>
