<svg width="28" height="37" viewBox="0 0 28 37" fill="none" xmlns="http://www.w3.org/2000/svg">
<path d="M28 15.1666C28 26.0555 14 35.3889 14 35.3889C14 35.3889 0 26.0555 0 15.1666C5.53285e-08 11.4536 1.475 7.89264 4.1005 5.26713C6.72601 2.64162 10.287 1.16663 14 1.16663C17.713 1.16663 21.274 2.64162 23.8995 5.26713C26.525 7.89264 28 11.4536 28 15.1666Z" fill="#565656"/>
<path d="M7.69167 10.1833V14.9083C7.69167 15.6508 8.29917 16.2583 9.04167 16.2583H11.7417C12.0997 16.2583 12.4431 16.1161 12.6963 15.8629C12.9494 15.6097 13.0917 15.2664 13.0917 14.9083V10.1833" stroke="white" stroke-width="1.5" stroke-linecap="round" stroke-linejoin="round"/>
<path d="M10.3917 10.1833V23.6833" stroke="white" stroke-width="1.5" stroke-linecap="round" stroke-linejoin="round"/>
<path d="M19.8417 18.9583V10.1833C18.9466 10.1833 18.0881 10.5389 17.4552 11.1718C16.8222 11.8048 16.4667 12.6632 16.4667 13.5583V17.6083C16.4667 18.3508 17.0742 18.9583 17.8167 18.9583H19.8417ZM19.8417 18.9583V23.6833" stroke="white" stroke-width="1.5" stroke-linecap="round" stroke-linejoin="round"/>
</svg>
