<svg width="28" height="37" viewBox="0 0 28 37" fill="none" xmlns="http://www.w3.org/2000/svg">
<path d="M28 15.1667C28 26.0556 14 35.3889 14 35.3889C14 35.3889 0 26.0556 0 15.1667C5.53285e-08 11.4537 1.475 7.8927 4.1005 5.26719C6.72601 2.64168 10.287 1.16669 14 1.16669C17.713 1.16669 21.274 2.64168 23.8995 5.26719C26.525 7.8927 28 11.4537 28 15.1667Z" fill="#794509"/>
<g clip-path="url(#clip0_292_6262)">
<path d="M15.5247 22.469C16.2522 21.7415 16.8728 20.9213 17.351 20.0553C17.8292 19.1893 18.1558 18.2944 18.3119 17.4218C18.4681 16.5491 18.4509 15.7157 18.2612 14.9693C18.0715 14.2228 17.7131 13.5778 17.2065 13.0712C16.6999 12.5645 16.0549 12.2062 15.3084 12.0165C14.5619 11.8268 13.7286 11.8096 12.8559 11.9657C11.9832 12.1219 11.0884 12.4484 10.2223 12.9267C9.35634 13.4049 8.53617 14.0255 7.80867 14.753" stroke="white" stroke-width="1.5" stroke-linecap="round" stroke-linejoin="round"/>
<path d="M15.5247 22.469C16.1387 21.855 16.3211 20.8597 16.0317 19.702C15.7424 18.5443 15.005 17.3191 13.9818 16.2959C12.9586 15.2727 11.7334 14.5353 10.5757 14.246C9.418 13.9566 8.42268 14.139 7.80867 14.753C7.19466 15.367 7.01227 16.3624 7.30161 17.5201C7.59096 18.6777 8.32834 19.9029 9.35155 20.9262C10.3748 21.9494 11.6 22.6867 12.7576 22.9761C13.9153 23.2654 14.9107 23.083 15.5247 22.469Z" stroke="white" stroke-width="1.5" stroke-linecap="round" stroke-linejoin="round"/>
<path d="M18.0904 14.4373L19.6167 12.911C19.8549 13.043 20.1191 13.1216 20.3908 13.1412C20.6625 13.1608 20.9352 13.121 21.1899 13.0245C21.4447 12.9281 21.6754 12.7773 21.8659 12.5827C22.0565 12.3881 22.2024 12.1543 22.2935 11.8976C22.3846 11.6408 22.4187 11.3674 22.3934 11.0961C22.3681 10.8249 22.2841 10.5625 22.1471 10.327C22.0101 10.0916 21.8235 9.88879 21.6002 9.73275C21.3769 9.57672 21.1224 9.4712 20.8542 9.42351C20.8017 9.1594 20.6929 8.9097 20.5352 8.6914C20.3776 8.47309 20.1748 8.29131 19.9406 8.1584C19.7064 8.0255 19.4463 7.9446 19.178 7.92121C18.9098 7.89782 18.6396 7.93248 18.386 8.02284C18.1323 8.1132 17.9011 8.25714 17.708 8.44486C17.515 8.63259 17.3646 8.85969 17.2672 9.11072C17.1698 9.36176 17.1275 9.63083 17.1434 9.89964C17.1593 10.1684 17.2329 10.4307 17.3592 10.6685L15.8412 12.1873" stroke="white" stroke-width="1.5" stroke-linecap="round" stroke-linejoin="round"/>
<path d="M12.0417 18.986L11.2917 18.236" stroke="white" stroke-width="1.5" stroke-linecap="round" stroke-linejoin="round"/>
</g>
<defs>
<clipPath id="clip0_292_6262">
<rect width="18" height="18" fill="white" transform="translate(5.66667 6.61102)"/>
</clipPath>
</defs>
</svg>
