<svg width="28" height="37" viewBox="0 0 28 37" fill="none" xmlns="http://www.w3.org/2000/svg">
<path d="M28 15.1667C28 26.0555 14 35.3889 14 35.3889C14 35.3889 0 26.0555 0 15.1667C5.53285e-08 11.4536 1.475 7.89267 4.1005 5.26716C6.72601 2.64165 10.287 1.16666 14 1.16666C17.713 1.16666 21.274 2.64165 23.8995 5.26716C26.525 7.89267 28 11.4536 28 15.1667Z" fill="#C35810"/>
<path d="M14.6663 11.2168C18.1417 11.2168 20.4909 13.1461 21.6985 14.4824L21.9212 14.7461C22.456 15.381 22.4345 16.2874 21.8889 16.8662C21.7479 17.0114 21.5018 17.2099 21.1829 17.3564L20.7981 17.5332L20.9514 17.9277C21.0853 18.2736 21.1633 18.6336 21.1633 19.0009C21.1631 20.1833 20.2385 21.1162 19.1301 21.1162H10.1946C9.08627 21.1162 8.16163 20.1833 8.16139 19.0009C8.16139 18.6273 8.23434 18.2684 8.36452 17.9394L8.52077 17.5449L8.136 17.3662C7.91134 17.2613 7.67422 17.1154 7.4612 16.9023C6.89449 16.3193 6.86527 15.3735 7.39479 14.7451C8.51825 13.417 10.9543 11.2169 14.6663 11.2168ZM16.0003 16.3242C15.8548 17.6241 15.8376 18.9579 15.9485 20.3076L15.9827 20.7207H18.6809V20.7295H19.1301C20.0697 20.7295 20.8089 19.943 20.8089 19.0088C20.8087 18.0026 20.2194 17.1015 19.304 16.7187H19.303C18.4073 16.3414 17.4699 16.0817 16.5178 15.9297L16.052 15.8554L16.0003 16.3242ZM11.5911 16.1894C11.1947 16.2952 10.8008 16.413 10.4124 16.5576L10.0257 16.7119C9.10405 17.0954 8.51589 17.9957 8.51589 19.0009V19.4502H8.58522C8.77757 20.1733 9.41916 20.7204 10.2024 20.7207H12.1839L12.1477 20.2373C12.0572 19.0212 12.0495 17.8279 12.1555 16.665L12.2141 16.0234L11.5911 16.1894ZM14.6585 11.6211C14.372 11.6211 14.1059 11.6503 13.8596 11.6758L13.6106 11.7011L13.5012 11.9267C13.4605 12.0109 13.4509 12.0887 13.4475 12.1299C13.3247 12.4897 13.2094 12.8705 13.1038 13.2568V13.2588C12.4959 15.5153 12.3003 17.8829 12.4964 20.3066L12.5296 20.7207H15.6194L15.5833 20.2373C15.4028 17.7947 15.6007 15.4093 16.2132 13.1386L16.2122 13.1377C16.2575 12.9789 16.3031 12.8387 16.3489 12.6953L16.4876 12.7177V12.1836L16.0481 12.1181L16.1067 11.748C15.6518 11.6771 15.1754 11.6211 14.6585 11.6211ZM12.427 11.9218C10.074 12.5505 8.47909 14.0401 7.65163 15.0215L7.28835 15.4521L7.42214 15.5205C7.32931 15.9004 7.41935 16.3182 7.71413 16.6172V16.6181C7.99199 16.9053 8.3035 17.042 8.54225 17.1093L8.80104 17.1826L8.98854 16.9892C9.2517 16.7173 9.56092 16.4961 9.9153 16.3496L9.92018 16.3466C10.5745 16.0662 11.2659 15.8578 11.9807 15.6982L12.2805 15.6318L12.3274 15.3291C12.4429 14.587 12.582 13.8609 12.7766 13.1484L12.7796 13.1396C12.8353 12.9174 12.8999 12.7361 12.9749 12.4843L13.2044 11.7138L12.427 11.9218ZM16.8294 12.3564C16.7378 12.6402 16.6434 12.9342 16.5569 13.247L16.5559 13.2509C16.402 13.8256 16.2737 14.409 16.1712 15.0009L16.093 15.4502L16.5432 15.5224C17.5302 15.6813 18.498 15.9481 19.4231 16.3388H19.4241C19.7732 16.4861 20.0748 16.7005 20.3372 16.9716L20.5257 17.167L20.7864 17.0908C21.1989 16.9705 21.4897 16.7422 21.6184 16.6093C22.0599 16.153 22.0592 15.476 21.6712 15.0195C20.9026 14.1082 19.4684 12.768 17.4026 12.0683L16.97 11.9218L16.8294 12.3564Z" fill="black" stroke="white" stroke-width="0.9"/>
</svg>
