<svg width="28" height="37" viewBox="0 0 28 37" fill="none" xmlns="http://www.w3.org/2000/svg">
<path d="M28 15.1666C28 26.0555 14 35.3889 14 35.3889C14 35.3889 0 26.0555 0 15.1666C5.53285e-08 11.4536 1.475 7.89266 4.1005 5.26715C6.72601 2.64164 10.287 1.16664 14 1.16664C17.713 1.16664 21.274 2.64164 23.8995 5.26715C26.525 7.89266 28 11.4536 28 15.1666Z" fill="#565656"/>
<path d="M7.69167 10.35V15.075C7.69167 15.8175 8.29917 16.425 9.04167 16.425H11.7417C12.0997 16.425 12.4431 16.2828 12.6963 16.0296C12.9494 15.7764 13.0917 15.433 13.0917 15.075V10.35" stroke="white" stroke-width="1.5" stroke-linecap="round" stroke-linejoin="round"/>
<path d="M10.3917 10.35V23.85" stroke="white" stroke-width="1.5" stroke-linecap="round" stroke-linejoin="round"/>
<path d="M19.8417 19.125V10.35C18.9466 10.35 18.0881 10.7056 17.4552 11.3385C16.8223 11.9715 16.4667 12.8299 16.4667 13.725V17.775C16.4667 18.5175 17.0742 19.125 17.8167 19.125H19.8417ZM19.8417 19.125V23.85" stroke="white" stroke-width="1.5" stroke-linecap="round" stroke-linejoin="round"/>
</svg>
