<svg width="28" height="37" viewBox="0 0 28 37" fill="none" xmlns="http://www.w3.org/2000/svg">
<path d="M28 15.1667C28 26.0555 14 35.3889 14 35.3889C14 35.3889 0 26.0555 0 15.1667C5.53285e-08 11.4536 1.475 7.89267 4.1005 5.26716C6.72601 2.64165 10.287 1.16666 14 1.16666C17.713 1.16666 21.274 2.64165 23.8995 5.26716C26.525 7.89267 28 11.4536 28 15.1667Z" fill="#C35810"/>
<path d="M13.9996 9.38345C17.4751 9.38345 19.8242 11.3128 21.0318 12.6491L21.2545 12.9128C21.7893 13.5477 21.7678 14.4541 21.2223 15.0329C21.0813 15.178 20.8351 15.3766 20.5162 15.5231L20.1314 15.6999L20.2848 16.0944C20.4186 16.4403 20.4967 16.8003 20.4967 17.1676C20.4964 18.35 19.5718 19.2829 18.4635 19.2829H9.52793C8.41961 19.2829 7.49497 18.35 7.49473 17.1676C7.49473 16.794 7.56767 16.4351 7.69785 16.1061L7.8541 15.7116L7.46934 15.5329C7.24467 15.428 7.00756 15.2821 6.79453 15.069C6.22782 14.486 6.1986 13.5402 6.72813 12.9118C7.85159 11.5837 10.2876 9.38361 13.9996 9.38345ZM15.3336 14.4909C15.1882 15.7908 15.1709 17.1246 15.2818 18.4743L15.316 18.8874H18.0143V18.8961H18.4635C19.403 18.8961 20.1422 18.1097 20.1422 17.1754C20.142 16.1692 19.5527 15.2681 18.6373 14.8854H18.6363C17.7406 14.5081 16.8032 14.2484 15.8512 14.0963L15.3854 14.0221L15.3336 14.4909ZM10.9244 14.3561C10.528 14.4618 10.1341 14.5797 9.7457 14.7243L9.35899 14.8786C8.43738 15.2621 7.84922 16.1624 7.84922 17.1676V17.6169H7.91856C8.11091 18.34 8.75249 18.8871 9.53574 18.8874H11.5172L11.4811 18.404C11.3906 17.1879 11.3829 15.9946 11.4889 14.8317L11.5475 14.1901L10.9244 14.3561ZM13.9918 9.78775C13.7054 9.78775 13.4392 9.81699 13.193 9.84244L12.9439 9.86783L12.8346 10.0934C12.7939 10.1775 12.7842 10.2554 12.7809 10.2965C12.658 10.6564 12.5427 11.0372 12.4371 11.4235V11.4254C11.8292 13.682 11.6336 16.0496 11.8297 18.4733L11.8629 18.8874H14.9527L14.9166 18.404C14.7361 15.9614 14.934 13.5759 15.5465 11.3053L15.5455 11.3044C15.5908 11.1456 15.6365 11.0054 15.6822 10.862L15.8209 10.8844V10.3503L15.3814 10.2848L15.44 9.9147C14.9852 9.84374 14.5087 9.78776 13.9918 9.78775ZM11.7604 10.0885C9.40738 10.7171 7.81243 12.2068 6.98496 13.1881L6.62168 13.6188L6.75547 13.6872C6.66265 14.0671 6.75268 14.4849 7.04746 14.7838V14.7848C7.32533 15.072 7.63684 15.2087 7.87559 15.276L8.13438 15.3493L8.32188 15.1559C8.58503 14.884 8.89425 14.6628 9.24863 14.5163L9.25352 14.5133C9.90786 14.2329 10.5992 14.0244 11.3141 13.8649L11.6139 13.7985L11.6607 13.4958C11.7763 12.7537 11.9153 12.0276 12.11 11.3151L12.1129 11.3063C12.1686 11.0841 12.2333 10.9027 12.3082 10.651L12.5377 9.88052L11.7604 10.0885ZM16.1627 10.5231C16.0712 10.8069 15.9767 11.1009 15.8902 11.4137L15.8893 11.4176C15.7353 11.9923 15.6071 12.5757 15.5045 13.1676L15.4264 13.6169L15.8766 13.6891C16.8636 13.848 17.8314 14.1148 18.7564 14.5055H18.7574C19.1065 14.6528 19.4082 14.8672 19.6705 15.1383L19.859 15.3336L20.1197 15.2575C20.5322 15.1371 20.8231 14.9089 20.9518 14.776C21.3933 14.3197 21.3926 13.6426 21.0045 13.1862C20.2359 12.2749 18.8018 10.9347 16.7359 10.235L16.3033 10.0885L16.1627 10.5231Z" fill="black" stroke="white" stroke-width="0.9"/>
</svg>
