<svg width="28" height="37" viewBox="0 0 28 37" fill="none" xmlns="http://www.w3.org/2000/svg">
<path d="M28 15.1666C28 26.0555 14 35.3889 14 35.3889C14 35.3889 0 26.0555 0 15.1666C5.53285e-08 11.4536 1.475 7.89264 4.1005 5.26713C6.72601 2.64162 10.287 1.16663 14 1.16663C17.713 1.16663 21.274 2.64162 23.8995 5.26713C26.525 7.89264 28 11.4536 28 15.1666Z" fill="#334E3B"/>
<g clip-path="url(#clip0_386_4489)">
<path d="M14 11.4629V9.11094C14 8.93413 14.0702 8.76456 14.1953 8.63954C14.3203 8.51451 14.4899 8.44427 14.6667 8.44427" stroke="white" stroke-width="1.5" stroke-linecap="round" stroke-linejoin="round"/>
<path d="M18.158 21.111C19.7842 19.272 20.6771 16.8991 20.6667 14.4443C20.6667 13.6721 20.4431 12.9165 20.0231 12.2686C19.6031 11.6206 19.0045 11.1081 18.2996 10.7929C17.5947 10.4777 16.8137 10.3732 16.0507 10.4921C15.2878 10.611 14.5755 10.9482 14 11.463C13.4245 10.9482 12.7122 10.611 11.9493 10.4921C11.1863 10.3732 10.4053 10.4777 9.70038 10.7929C8.9955 11.1081 8.39691 11.6206 7.97689 12.2686C7.55686 12.9165 7.33335 13.6721 7.33334 14.4443C7.32913 16.898 8.22124 19.2688 9.842 21.111C10.1405 21.4449 10.5424 21.669 10.9833 21.7473C11.4243 21.8256 11.8788 21.7537 12.274 21.543C12.8052 21.2596 13.398 21.1113 14 21.1113C14.602 21.1113 15.1948 21.2596 15.726 21.543C16.1212 21.7537 16.5757 21.8256 17.0167 21.7473C17.4576 21.669 17.8595 21.4449 18.158 21.111Z" stroke="white" stroke-width="1.5" stroke-linecap="round" stroke-linejoin="round"/>
</g>
<defs>
<clipPath id="clip0_386_4489">
<rect width="16" height="16" fill="white" transform="translate(6 7.11096)"/>
</clipPath>
</defs>
</svg>
