<svg width="21" height="21" viewBox="0 0 21 21" fill="none" xmlns="http://www.w3.org/2000/svg">
<path d="M18.235 4.03375C17.7881 3.58662 17.2575 3.23194 16.6734 2.98994C16.0894 2.74795 15.4634 2.6234 14.8313 2.6234C14.1991 2.6234 13.5731 2.74795 12.9891 2.98994C12.4051 3.23194 11.8744 3.58662 11.4275 4.03375L10.5 4.96125L9.57251 4.03375C8.66978 3.13101 7.44542 2.62387 6.16876 2.62387C4.89211 2.62387 3.66774 3.13101 2.76501 4.03375C1.86228 4.93648 1.35513 6.16084 1.35513 7.4375C1.35513 8.71415 1.86228 9.93852 2.76501 10.8412L3.69251 11.7687L10.5 18.5762L17.3075 11.7687L18.235 10.8412C18.6821 10.3943 19.0368 9.86371 19.2788 9.27968C19.5208 8.69566 19.6454 8.06967 19.6454 7.4375C19.6454 6.80532 19.5208 6.17934 19.2788 5.59531C19.0368 5.01128 18.6821 4.48066 18.235 4.03375V4.03375Z" stroke="white" stroke-width="1.75" stroke-linecap="round" stroke-linejoin="round"/>
</svg>
